<?xml version="1.0" encoding="UTF-8"?>
<svg version="1.1" xmlns="http://www.w3.org/2000/svg" width="64" height="64">
<path d="M0 0 C1.44064486 0.87850134 2.86215295 1.790259 4.25 2.75 C5.61125 3.5853125 5.61125 3.5853125 7 4.4375 C14.34126464 11.98268866 16.56818753 19.90219951 16.64160156 30.12402344 C16.52801682 36.65376111 14.99009852 41.34157764 11.25 46.75 C10.693125 47.6575 10.13625 48.565 9.5625 49.5 C2.01731134 56.84126464 -5.90219951 59.06818753 -16.12402344 59.14160156 C-22.65376111 59.02801682 -27.34157764 57.49009852 -32.75 53.75 C-33.6575 53.193125 -34.565 52.63625 -35.5 52.0625 C-42.84126464 44.51731134 -45.06818753 36.59780049 -45.14160156 26.37597656 C-45.02801682 19.84623889 -43.49009852 15.15842236 -39.75 9.75 C-39.193125 8.8425 -38.63625 7.935 -38.0625 7 C-28.31385324 -2.48516982 -12.537756 -6.18352262 0 0 Z " fill="#133B8D" transform="translate(46.75,3.25)"/>
<path d="M0 0 C2.91611944 1.84891489 5.42997066 3.85994132 7 7 C7.21971868 10.29578022 7.21258171 12.5157861 5.875 15.5625 C4.70591486 18.04989611 4.70591486 18.04989611 5.875 20.8125 C6.24625 21.534375 6.6175 22.25625 7 23 C8.0725 22.95875 9.145 22.9175 10.25 22.875 C13.6861482 22.98953827 15.25767552 23.0702161 18 25 C20.67402716 29.01104074 20.93255974 32.28768487 20 37 C16.96377604 40.6286579 15.0927625 41.80828728 10.4375 42.625 C6.14633929 41.84478896 4.66112392 40.38688499 2 37 C2 36.34 2 35.68 2 35 C-1.3 35 -4.6 35 -8 35 C-8.66 36.32 -9.32 37.64 -10 39 C-12.46913748 41.56058701 -13.87013436 41.98111045 -17.4375 42.5 C-21 42 -21 42 -23.9375 40.0625 C-26.34576589 36.48659004 -26.74519692 34.39468302 -26.4765625 30.16015625 C-25.65870267 26.45297192 -24.13836313 25.02685952 -21 23 C-18.19282375 22.60564622 -15.85768227 22.75782354 -13 23 C-11.18397483 18.46167247 -11.18397483 18.46167247 -12 14 C-12.57950681 10.26621561 -13.03003198 6.55395828 -10.87109375 3.296875 C-7.40704811 0.14938705 -4.5430607 -0.94647098 0 0 Z " fill="#F0F3F8" transform="translate(35,7)"/>
<path d="M0 0 C3.28762733 0.04730399 3.81915656 0.06915656 6.25 2.5 C7.3679904 6.17339704 6.6905722 7.93074116 5.125 11.375 C4.125 12.375 4.125 12.375 0.25 12.75 C-3.03762733 12.70269601 -3.56915656 12.68084344 -6 10.25 C-7.1179904 6.57660296 -6.4405722 4.81925884 -4.875 1.375 C-3.875 0.375 -3.875 0.375 0 0 Z " fill="#143A8C" transform="translate(31.875,25.625)"/>
<path d="M0 0 C3 0.25 3 0.25 5 2.25 C5.333728 5.38704316 5.52849028 7.41554166 3.8125 10.125 C1.31963619 11.67229478 -0.11967335 11.75405716 -3 11.25 C-4.875 9.5625 -4.875 9.5625 -6 7.25 C-5.67747519 2.7346526 -4.81889451 0.40157454 0 0 Z " fill="#163B8D" transform="translate(46,33.75)"/>
<path d="M0 0 C2.9375 0.875 2.9375 0.875 4.9375 3.875 C4.6133631 7.19740324 4.32973697 8.48276303 1.9375 10.875 C-1.0625 11.125 -1.0625 11.125 -4.0625 10.875 C-6.0625 8.875 -6.0625 8.875 -6.375 5.9375 C-6.0625 2.875 -6.0625 2.875 -4.9375 0.9375 C-3.0625 -0.125 -3.0625 -0.125 0 0 Z " fill="#15398C" transform="translate(33.0625,11.125)"/>
<path d="M0 0 C3 0.25 3 0.25 5 2.25 C5.3125 5.75 5.3125 5.75 5 9.25 C2 11.25 2 11.25 -1.125 10.9375 C-4 10.25 -4 10.25 -5 9.25 C-5.1875 5.8125 -5.1875 5.8125 -5 2.25 C-3 0.25 -3 0.25 0 0 Z " fill="#13378B" transform="translate(18,33.75)"/>
</svg>
