<?xml version="1.0" encoding="UTF-8"?>
<svg version="1.1" xmlns="http://www.w3.org/2000/svg" width="128" height="128">
<path d="M0 0 C1.20333984 -0.02449219 2.40667969 -0.04898438 3.64648438 -0.07421875 C20.01427984 -0.12727481 33.3960041 6.41407216 45.3125 17.375 C57.86523593 30.35290925 62.66887969 44.40113714 62.6875 62.0625 C62.71199219 63.26583984 62.73648438 64.46917969 62.76171875 65.70898438 C62.81477481 82.07677984 56.27342784 95.4585041 45.3125 107.375 C32.33459075 119.92773593 18.28636286 124.73137969 0.625 124.75 C-0.57833984 124.77449219 -1.78167969 124.79898438 -3.02148438 124.82421875 C-19.38927984 124.87727481 -32.7710041 118.33592784 -44.6875 107.375 C-57.24023593 94.39709075 -62.04387969 80.34886286 -62.0625 62.6875 C-62.09923828 60.88249023 -62.09923828 60.88249023 -62.13671875 59.04101562 C-62.18977481 42.67322016 -55.64842784 29.2914959 -44.6875 17.375 C-31.70959075 4.82226407 -17.66136286 0.01862031 0 0 Z " fill="#123B8D" transform="translate(63.6875,1.625)"/>
<path d="M0 0 C3.90387701 2.95171189 7.35807825 6.52865649 9.5625 10.9375 C10.06510955 17.93537141 10.33321168 23.81009352 6.5625 29.9375 C6.5625 34.08983465 7.01066211 35.15416928 9.0625 38.5625 C11.5625 42.74305556 11.5625 42.74305556 11.5625 44.9375 C12.5525 44.6075 13.5425 44.2775 14.5625 43.9375 C19.87073606 43.09543042 23.728384 43.61767957 28.3125 46.5 C33.58018892 50.49458722 37.02696432 53.48123512 38.0703125 60.21484375 C38.34897356 65.89104844 38.38258961 70.7154325 35.0625 75.5 C30.33371548 80.63758132 25.63971552 84.16414085 18.5 84.5 C12.84799539 84.17925741 9.17720331 82.4774975 5.05859375 78.4765625 C2.62093795 75.7402765 1.28269763 73.49251807 0.5625 69.9375 C-2.66874376 69.87283022 -5.89349387 69.89724594 -9.125 69.9375 C-10.49301758 69.90849609 -10.49301758 69.90849609 -11.88867188 69.87890625 C-14.61826733 69.93846106 -16.83887513 70.08746167 -19.4375 70.9375 C-21.22499316 72.84329674 -22.28738384 74.63063658 -23.40722656 76.98461914 C-25.31433033 80.59952982 -28.67681816 82.25594574 -32.375 83.6875 C-39.13841972 84.50730845 -43.86529214 83.87403041 -49.4375 79.9375 C-53.3944252 76.14830573 -57.06874644 72.59666989 -57.640625 66.921875 C-57.77852991 60.34840781 -56.31648373 55.82308216 -52.6875 50.25 C-49.88197513 47.36654388 -47.29419899 45.12682072 -43.4375 43.9375 C-41.41413274 44.01083009 -39.39233512 44.1400141 -37.375 44.3125 C-34.29505671 44.55760508 -34.29505671 44.55760508 -31.4375 43.9375 C-28.47139298 41.02091981 -26.79011391 37.85296132 -25.4375 33.9375 C-25.14425503 29.96785544 -25.14425503 29.96785544 -26.9375 26.875 C-29.37375869 21.41684351 -29.69514342 15.24091004 -27.55859375 9.62890625 C-21.34122588 -1.22583831 -11.89496645 -3.67662599 0 0 Z " fill="#F5F7FA" transform="translate(72.4375,16.0625)"/>
<path d="M0 0 C13.28047829 -1.36859891 13.28047829 -1.36859891 17.296875 1.828125 C19.86120723 5.66192863 21.51684275 9.37980876 22 14 C20.125 17.0625 20.125 17.0625 18 20 C17.67 21.32 17.34 22.64 17 24 C11.06 24 5.12 24 -1 24 C-6.05568815 14.75178998 -6.05568815 14.75178998 -5.8125 11.46875 C-4.94155615 8.82242062 -3.8383082 6.59401664 -2.4375 4.1875 C-1.98246094 3.39730469 -1.52742188 2.60710938 -1.05859375 1.79296875 C-0.53458984 0.90544922 -0.53458984 0.90544922 0 0 Z " fill="#143C8E" transform="translate(55,53)"/>
<path d="M0 0 C3.77062132 2.07014504 7.005306 4.12142833 9 8 C9.56172694 12.33332214 9.29780107 14.45574287 7.1875 18.3125 C4.99854341 21.00178952 3.42821517 22.76998782 -0.0859375 23.3359375 C-4.11172399 23.40463693 -6.40531432 23.35428083 -9.9375 21.25 C-12.95236344 17.96105806 -13.83016289 16.12517087 -14.5 11.6875 C-13.83398123 6.77561156 -11.58855833 4.29106127 -8 1 C-5.13391871 -0.43304064 -3.18699217 -0.30644155 0 0 Z " fill="#173F8F" transform="translate(37,68)"/>
<path d="M0 0 C3.63467079 1.62400184 4.77408696 2.66113044 7 6 C7.60695266 10.20925614 7.43802698 13.93951362 5.8125 17.875 C2.92334662 21.26228328 0.48548211 22.77875798 -3.9375 23.4375 C-7.86292527 22.87672496 -9.94797605 21.49711051 -13 19 C-15.55546631 14.81673666 -15.91574825 10.7767409 -15 6 C-11.68788336 -0.1834573 -6.5550068 -1.23359907 0 0 Z " fill="#153D8E" transform="translate(95,69)"/>
<path d="M0 0 C3.33923588 0.76921684 5.60255718 2.30670485 8.1875 4.50390625 C10.03860583 8.20611791 9.65204795 12.46297542 9.1875 16.50390625 C7.14148195 20.01136577 5.08328864 22.24350404 1.1875 23.50390625 C-2.71426173 23.82905306 -5.60547973 23.85572112 -8.8125 21.50390625 C-12.02830216 17.75213707 -13.61815618 14.59094039 -13.31640625 9.5390625 C-11.60201475 2.61504723 -6.93471501 -0.55056014 0 0 Z " fill="#153E8E" transform="translate(64.8125,22.49609375)"/>
<path d="M0 0 C0.66 0.33 1.32 0.66 2 1 C0.38405168 3.04119788 -1.2856382 5.04072937 -3 7 C-3.66 7 -4.32 7 -5 7 C-5.33 7.99 -5.66 8.98 -6 10 C-5.58578031 5.16743695 -3.53586014 3.17320782 0 0 Z " fill="#274C97" transform="translate(86,69)"/>
</svg>
